<?xml version="1.0" encoding="utf-8"?>
<!-- Generator: Adobe Illustrator 22.0.0, SVG Export Plug-In . SVG Version: 6.00 Build 0)  -->
<svg version="1.1" xmlns="http://www.w3.org/2000/svg" xmlns:xlink="http://www.w3.org/1999/xlink"
	x="0px" y="0px"
	viewBox="0 0 340 303" style="enable-background:new 0 0 340 303;" xml:space="preserve">
<style type="text/css">
	.st0{display:none;}
	.st1{display:none;fill:#FF3333;stroke:#CCCCCC;stroke-width:8;stroke-miterlimit:10;}
	.st2{display:none;fill:none;stroke:#FFFFFF;stroke-width:8;stroke-miterlimit:10;}
	.st3{fill:none;stroke:#FFFFFF;stroke-width:4;stroke-miterlimit:10;}
	.st4{display:none;fill:#FFFFFF;stroke:#FFFFFF;stroke-width:8;stroke-miterlimit:10;}
	.st5{fill:#FF3333;stroke:#FFFFFF;stroke-width:4;stroke-miterlimit:10;}
	.st6{fill:#FFFFFF;}
	.st7{fill:#FFFFFF;stroke:#FFFFFF;stroke-miterlimit:10;}
</style>
<g id="Layer_1" class="st0">
	
		<image style="display:inline;overflow:visible;" width="605" height="823" xlink:href="cns.png"  transform="matrix(0.6 0 0 0.6 123.7813 -9.875)">
	</image>
</g>
<g id="Layer_5">
	<rect x="-14" y="-21" class="st1" width="392" height="349"/>
	<line class="st2" x1="27.4" y1="94.2" x2="307.8" y2="94.2"/>
	<line class="st3" x1="20.4" y1="110.2" x2="318.3" y2="110.2"/>
	<line class="st3" x1="33" y1="77.6" x2="301.9" y2="77.6"/>
	<line class="st2" x1="48.7" y1="60.6" x2="292.6" y2="60.6"/>
	<line class="st3" x1="67.2" y1="42.9" x2="270.4" y2="42.9"/>
	<line class="st4" x1="92.1" y1="28.2" x2="247.2" y2="28.2"/>
	<line class="st2" x1="16.8" y1="126.6" x2="316.3" y2="126.6"/>
	<line class="st3" x1="14.4" y1="143.6" x2="325.3" y2="143.6"/>
	<line class="st2" x1="12.4" y1="159.9" x2="318.3" y2="159.9"/>
	<line class="st3" x1="14.4" y1="176.2" x2="323.2" y2="176.2"/>
	<line class="st2" x1="22.8" y1="193" x2="312.5" y2="193"/>
	<line class="st3" x1="25.9" y1="209.2" x2="310.4" y2="209.2"/>
	<line class="st2" x1="34.4" y1="225.9" x2="303.6" y2="225.9"/>
	<line class="st3" x1="47.6" y1="242.4" x2="288" y2="242.4"/>
	<line class="st2" x1="62.4" y1="259.4" x2="268.6" y2="259.4"/>
	<line class="st5" x1="95.3" y1="275.7" x2="243.5" y2="275.7"/>
	<path class="st6" d="M190.1,231.6c0.7-5.6,0.7-10.5,0.5-14.5c-0.3-7.1-1.7-16-2.7-17.5c0-0.1-0.3-0.4-0.2-0.6
		c0.2-0.4,1.4,0.1,2.8,0.2c1.2,0.1,2-0.1,3.2-0.3c0,0,0.8-0.2,3.8-1.2c0.3,0.6,0.8,1.5,1.2,2.7c0.6,1.8,0.5,3,0.7,4.2
		c0.2,1.8,0.8,3.1,2,5.7c1.2,2.7,2.4,5.2,4.5,7.5c2.7,2.9,5.7,4.1,8.3,5.2c2.5,1,8.4,3,15.8,1.8c4.8-0.7,7.6-2.4,8.3-2.8
		c1.8-1.1,3.9-2.4,5.2-5c1.1-2.3,1.1-4.5,1-5.5c0-0.8-0.2-3.7-2-6.2c-1.4-2-3.1-2.6-8.5-4.5c-7-2.5-10.6-3.7-12.2-4.2
		c-6.6-1.8-7.1-1.3-11.2-2.8c-1.1-0.4-5-1.9-9.5-4.8c-4.8-3.1-8.2-5.4-10.3-9.7c-1.1-2.2-1.3-4-1.8-7.7c-0.4-2.9-0.9-6.9,0-12
		c1.1-5.8,3.5-9.8,4-10.7c0.6-0.9,2.7-4.3,7.5-8.2c7.5-6.1,15.3-8.2,18.8-9.2c9.8-2.6,17.8-1.9,23-1.3c2.1,0.2,10,1.1,15.8,3.5
		c0.4,0.2,5.7,2.3,5.7,2.3c0,0,0.3,4.3,0.5,7.7c0.4,6.5,0.2,6.3,0.5,10.2c0.4,4.3,0.6,6.5,1,7.5c0.4,1.1,1.2,2.6,0.7,3.2
		c-0.3,0.3-0.8,0.2-1.8,0.2c-1.5,0-1.8,0.4-4,1c-2.5,0.6-3.7,1-4.3,0.5c-1.1-0.8-0.1-2.7-0.5-5.8c-0.4-3-1.9-5.1-3.3-7.2
		c-0.9-1.3-2.9-4-6.3-6c-3.4-2-6.5-2.3-10.7-2.7c-2.6-0.2-6-0.5-10.2,0.5c-1.9,0.5-4.1,1-6.3,2.7c-1.1,0.8-3.3,2.5-4.5,5.5
		c-0.4,1.1-1.3,3.3-0.5,5.7c0.5,1.7,1.7,2.8,3,4c2.3,2.1,4.7,3.1,5.5,3.5c5.1,2.2,9.7,3.1,11.5,3.5c7,1.5,10.9,2.3,15.3,4
		c4.7,1.8,9,3.5,13,7.7c3.9,4.1,5.3,8.4,6,10.3c3.3,9.7,0.5,18.3-0.7,21.3c-2.4,6.4-6.2,10.2-8.2,12.2c-6.2,6.2-13,8.6-17.5,10.2
		c-7.1,2.4-12.8,2.7-18.2,3c-9.1,0.5-15.5-0.7-17.2-1c-4.9-0.9-8.4-2.2-9.7-2.7C194.3,233.7,191.9,232.5,190.1,231.6z"/>
	<path class="st6" d="M92.9,164.7c0,0,0,0.1,0.1,0.2c0,0,0.5,0.7,0.5,0.7c2.6,3.5,48.8,65.8,51.5,69.4c6.7,0.4,13.4,0.8,20.2,1.1
		c1.2-52.4,1.9-87.6,1.7-89.6c0-0.1,0-1.3,0.3-2.1c0.6-1.7,1.7-2.3,2.2-2.5c0.4-0.2,4.1-0.8,6.9-0.5c0.7,0.1,1.9,0.2,1.9,0.2
		c0.1-0.4,0.1-1.4,0-2.1c-0.4-3.3-0.4-7-0.1-7.6c0,0,0,0,0-0.1c-0.1-0.3-2.8,0.9-4.3,1.2c-2,0.4-2.7,0.2-8.5,0.3
		c-4.2,0.1-4.2,0.3-8.2,0.3c-1.3,0-3.6,0-6.3-0.2c-3.9-0.3-9-0.6-10.4-1.4c0,0-0.2-0.1-0.3-0.1c-0.6,0.2,0.3,2.4,0,5.5
		c-0.2,1.4-0.5,2.1,0,2.7c0.3,0.4,0.9,0.5,2.2,0.7c1.8,0.3,2.2,0.2,3.2,0.5c0.6,0.2,1.1,0.3,2.2,0.9c1.6,0.9,2.1,1.7,2.7,2.4
		c0.7,0.9,0.8,1.7,1.1,3.4c0.5,3.6,0.8,3.8,1,5.7c1.7,14.6-0.5,58.9,0.3,44.2c0,0-2.6-3.6-2.7-3.7c-10.1-13.9-18.3-25-18.3-25
		c-10.8-14.6-16.2-21.9-17-22.7c-1.4-1.4-4.5-4.3-6.7-8.7c-0.6-1.3-2.5-5.3-2.5-5.3c0,0-5.2,0.5-5.7,0.5c-9.8,0.9-17,0.7-17,0.7
		c-4.8-0.1-14.5-0.4-16.8-1.7c-0.1-0.1-0.6-0.3-0.9-0.2c-0.5,0.3,0.4,1.7,0.5,3.8c0,1.4-0.3,1.5-0.3,3.7c0,0.4,0,1.8,0,1.8
		c0,0,1.8-0.1,3.5-0.2c1.4,0,2.1-0.1,2.7,0c0.8,0.1,1.7,0.2,2.8,0.8c1.2,0.7,1.8,1.5,2.2,2c0.2,0.3,0.6,0.9,1.3,2.8
		c0.4,1,0.8,2.2,1.2,3.7c0.8,3.4,0.7,6.6,0.7,7.3c-0.5,14.5-0.3,29.1-0.9,43.6c-0.2,6.2-0.6,15.7-1.8,21.2c-0.3,1.5-1.1,2.2-2.7,3.2
		c-1.5,0.8-2.7,0.6-4.5,0.5c-3.4-0.1-4.6-0.6-4.9,0c-0.2,0.4,0.2,0.8,0.4,2.1c0.1,0.5,0.1,1,0,2.2c-0.2,3.5-0.5,4.8,0,5.1
		c0.1,0.1,0.2,0,0.7-0.1c0.8-0.1,1.5-0.2,2.3-0.4c0.9-0.2,1.9-0.3,4-0.3c3.9-0.1,7.8-0.2,7.8-0.2c4.5-0.1,9-0.2,9-0.2
		c2.7-0.1,3.8-0.1,5.7,0c1.6,0.1,1.4,0.2,4.8,0.5c2.9,0.3,6,0.5,6,0.5c0,0-0.2-2.5-0.1-4.9c0.1-2.9,0.6-3.7,0-4.2
		c-0.4-0.4-0.9-0.3-3.4-0.1c-2.4,0.1-3.6,0.2-4.4-0.1c-2.1-0.6-3.3-2.3-3.5-2.7c-0.9-1.4-1.1-2.7-1.3-4.9c-0.3-3.8-0.4-5.7-0.2-7.7
		c0.4-4.6-0.1-9.3-0.1-14c0,0-0.1-24.5-0.1-28.9c0-0.9,0.1-1.6,0.1-1.6C92.9,165.6,92.9,164.7,92.9,164.7z"/>
	<path class="st7" d="M207.9,91.4c0,0.3,1.2,0.6,1.9,0.9c1.7,0.6,2.4,1.1,4.5,2.1c1,0.5,1.2,0.6,1.3,0.6c0,0,0.1,0,0.1,0
		c0.1,0.2-0.3,0.7-0.3,0.8c-1,1.4-1.5,3.1-2.4,4.6c-2.9,4.9-6.4,16.2-6.4,16.8c0,0,0,0.2-0.1,0.3c-0.1,0.1-0.3,0.1-0.5,0.1
		c-0.3,0-0.5,0.1-0.8,0.3c-2,0.8-4.2,1.4-6.2,2.1c-4.4,1.7-10.4,2.6-12,2.8c-3.5,0.5-6.2,0.6-8.8,0.8c-1.9,0.1-4.6,0.2-8.3,0
		c-1.5-0.1-4-0.2-7.1-0.6c-2.1-0.3-6-0.9-10.2-2.2c-1.6-0.5-8.2-2.8-15-8.6c-2.2-1.9-6.3-5.4-9.8-11.3c-0.9-1.5-3.3-5.7-4.8-11.8
		c-0.5-1.9-1.5-6.8-1.2-13.1c0.2-3,0.6-9.6,4.3-17.1c3.3-6.7,7.5-10.7,9.8-12.8c5.8-5.5,11.5-8.1,14.8-9.5c9.4-4.2,17.5-5,23.2-5.4
		c4.3-0.3,13.4-0.8,24.7,1.7c0,0,0.7,0.2,12,3.6c-0.5,5.5-0.3,9.9,0.1,13.2c0,0,0.2,2.3,2.2,13c-3,0.7-5.9,1.4-8.9,2.1
		c0-0.6,0-1.4-0.2-2.3c-0.1-0.9-0.7-4.4-3.2-8c-2.1-3.1-4.6-4.8-5.9-5.6c-3.6-2.4-7-3.1-9.5-3.6c-4.8-1-8.6-0.6-10.2-0.4
		c-3,0.4-8.5,1-13.6,5c-4.8,3.7-6.8,8.3-7.8,10.8c-2.2,5.3-2.3,9.7-2.4,14.4c-0.1,4.7-0.2,10.1,2.3,16.5c1.2,3.1,3.4,8.5,8.8,12.6
		c4.1,3,8.1,4,11.5,4.8c2.5,0.6,6.6,1.5,12,0.8c2.5-0.3,6.3-0.9,10.3-3.5c3-2,5-4.5,6.4-6.2c0.7-0.9,1.7-2.3,3.7-5.3
		c0,0,0.9-1.3,1.6-2.7c0.2-0.4,0.3-0.6,0.3-0.6C208,91.3,207.9,91.3,207.9,91.4z"/>
	<ellipse class="st3" cx="168.8" cy="151.5" rx="156.8" ry="139.9"/>
</g>
</svg>